<svg id="Layer_1" enable-background="new 0 0 256 256" height="512" viewBox="0 0 256 256" width="512" xmlns="http://www.w3.org/2000/svg"><g><path d="m183.1 50.3v-28.5c0-10.6-8.6-19.3-19.3-19.3h-103.6c-10.6 0-19.3 8.6-19.3 19.3v212.4c0 10.6 8.6 19.3 19.3 19.3h103.6c10.6 0 19.3-8.6 19.3-19.3v-69.3h-97.3c-2.4 0-4.3-2-4.3-4.4v-12.4h-12.4c-2.4 0-4.3-2-4.3-4.4v-77.6c0-2.4 1.9-4.3 4.3-4.3h104.9c2.1-4.5 5.2-8.4 9.1-11.5z" fill="#29589f"/><path d="m69.1 61.8h103.1v-40c0-4.6-3.8-8.4-8.4-8.4h-30.1c-3.7 0-7.2 2.1-9 5.4-4.5 7.8-14.4 10.5-22.2 6.1-2.5-1.4-4.6-3.5-6.1-6.1-1.8-3.3-5.2-5.3-9-5.4h-27.2c-4.6 0-8.4 3.8-8.4 8.4v212.4c0 4.6 3.8 8.4 8.4 8.4h103.6c4.6 0 8.4-3.8 8.4-8.4v-69.3h-86.4c-2.4 0-4.3-2-4.3-4.4v-12.4h-12.4c-2.4 0-4.3-2-4.3-4.4v-77.6c-.1-2.4 1.9-4.3 4.3-4.3z" fill="#edf4fc"/><path d="m135.5 29.2h15.1c1.2 0 2.2 1 2.2 2.2v6.4c0 1.2-1 2.2-2.2 2.2h-15.1c-1.2 0-2.2-1-2.2-2.2v-6.4c0-1.2 1-2.2 2.2-2.2z" fill="#9be5f9"/><path d="m135.5 29.2c-1.2 0-2.2 1-2.2 2.2v6.4c0 1.2 1 2.2 2.2 2.2h6l4.7-10.9z" fill="#f5c84c"/><path d="m129 186.5h-34c-5.1 0-9.3 4.2-9.3 9.3s4.2 9.3 9.3 9.3h34c5.1 0 9.3-4.2 9.3-9.3s-4.2-9.3-9.3-9.3z" fill="#87d147"/><path d="m205.1 185.9h-2.1v-2.1c0-1.5-1.3-2.8-2.8-2.8s-2.8 1.3-2.8 2.8v2.1h-2.1c-1.5 0-2.8 1.3-2.8 2.8s1.3 2.8 2.8 2.8h2.1v2.1c0 1.5 1.3 2.8 2.8 2.8s2.8-1.3 2.8-2.8v-2.1h2.1c1.5 0 2.8-1.3 2.8-2.8 0-1.6-1.2-2.8-2.8-2.8z" fill="#70d6f9"/><path d="m32.3 42.9c-4-.7-7.1-3.8-7.9-7.7 0-.1-.1-.2-.2-.1-.1 0-.1.1-.1.1-.8 4-3.9 7-7.9 7.7-.1 0-.2.1-.2.2s.1.1.2.2c4 .7 7.1 3.8 7.9 7.7 0 .1.1.2.2.1.1 0 .1-.1.1-.1.8-4 3.9-7 7.9-7.7.1 0 .2-.1.2-.2s-.1-.2-.2-.2z" fill="#f5c84c"/><circle cx="29.5" cy="18" fill="#87d147" r="3"/><circle cx="27.5" cy="128" fill="#ef4460" r="3"/><circle cx="197.5" cy="213" fill="#f5c84c" r="3"/><path d="m163.8 256h-103.6c-12 0-21.8-9.8-21.8-21.8v-212.4c0-12 9.8-21.8 21.8-21.8h103.6c12 0 21.8 9.8 21.8 21.8v28.5c0 .8-.3 1.5-.9 1.9-3.6 2.9-6.4 6.5-8.4 10.6-.4.9-1.3 1.4-2.3 1.4h-104.9c-1 0-1.8.8-1.8 1.8v77.7c0 1 .8 1.8 1.8 1.9h12.4c1.4 0 2.5 1.1 2.5 2.5v12.4c0 1 .8 1.8 1.8 1.9h97.2c1.4 0 2.5 1.1 2.5 2.5v69.3c0 12-9.7 21.8-21.7 21.8zm-103.6-251c-9.3 0-16.8 7.5-16.8 16.8v212.4c0 9.3 7.5 16.8 16.8 16.8h103.6c9.3 0 16.8-7.5 16.8-16.8v-66.8h-94.8c-3.8 0-6.8-3.1-6.8-6.9v-9.9h-9.9c-3.8 0-6.8-3.1-6.8-6.9v-77.6c0-3.8 3.1-6.8 6.8-6.8h103.3c2.1-3.8 4.8-7.3 8.2-10.2v-27.3c0-9.3-7.5-16.8-16.8-16.8z"/><path d="m113.8 16.4h-7.6c-1.4 0-2.5-1.1-2.5-2.5s1.1-2.5 2.5-2.5h7.6c1.4 0 2.5 1.1 2.5 2.5s-1.1 2.5-2.5 2.5z"/><path d="m156.2 37.1h-3.3c-1.4 0-2.5-1.1-2.5-2.5s1.1-2.5 2.5-2.5h3.3c1.4 0 2.5 1.1 2.5 2.5s-1.2 2.5-2.5 2.5z"/><path d="m82.1 37.1h-13c-1.4 0-2.5-1.1-2.5-2.5s1.1-2.5 2.5-2.5h13.1c1.4 0 2.5 1.1 2.5 2.5s-1.2 2.5-2.6 2.5z"/><path d="m119.7 218h-15.4c-1.4 0-2.5-1.1-2.5-2.5s1.1-2.5 2.5-2.5h15.4c1.4 0 2.5 1.1 2.5 2.5s-1.1 2.5-2.5 2.5z"/><path d="m163.8 245.1h-103.6c-6 0-10.9-4.9-10.9-10.9v-212.4c0-6 4.9-10.9 10.9-10.9h27.1c4.6.1 8.9 2.6 11.2 6.6 3.8 6.6 12.2 8.9 18.8 5.2 2.1-1.2 3.9-3 5.2-5.2 2.3-4 6.5-6.6 11.2-6.6h30.1c6 0 10.9 4.9 10.9 10.9v40c0 1.4-1.1 2.5-2.5 2.5h-103.1c-1 0-1.8.8-1.8 1.8v77.7c0 1 .8 1.8 1.8 1.9h12.4c1.4 0 2.5 1.1 2.5 2.5v12.4c0 1 .8 1.8 1.8 1.9h86.3c1.4 0 2.5 1.1 2.5 2.5v69.3c.1 5.9-4.8 10.8-10.8 10.8zm-103.6-229.2c-3.3 0-5.9 2.6-5.9 5.9v212.4c0 3.3 2.6 5.9 5.9 5.9h103.6c3.3 0 5.9-2.6 5.9-5.9v-66.8h-83.9c-3.8 0-6.8-3.1-6.8-6.9v-9.9h-9.9c-3.8 0-6.8-3.1-6.8-6.9v-77.6c0-3.8 3.1-6.8 6.8-6.8h100.6v-37.5c0-3.3-2.6-5.9-5.9-5.9h-30.1c-2.9 0-5.5 1.6-6.8 4.1-5.1 9-16.6 12.2-25.7 7-2.9-1.7-5.3-4.1-7-7-1.4-2.5-4-4.1-6.8-4.1z"/><path d="m150.7 42.6h-15.1c-2.6 0-4.7-2.1-4.7-4.7v-6.4c0-2.6 2.1-4.7 4.7-4.7h15.1c2.6 0 4.7 2.1 4.7 4.7v6.4c0 2.5-2.1 4.7-4.7 4.7zm-14.9-5h14.6v-5.9h-14.6z"/><path d="m141.5 42.6h-6c-2.6 0-4.7-2.1-4.7-4.7v-6.4c0-2.6 2.1-4.7 4.7-4.7h10.7c1.4 0 2.5 1.1 2.5 2.5 0 .3-.1.7-.2 1l-4.7 10.9c-.3.8-1.3 1.4-2.3 1.4zm-5.7-5h4.1l2.5-5.9h-6.6z"/><path d="m129 207.6h-34c-6.5-.1-11.7-5.4-11.7-11.9.1-6.4 5.3-11.6 11.7-11.7h34c6.5.1 11.7 5.4 11.7 11.9-.1 6.5-5.3 11.7-11.7 11.7zm-34-18.6c-3.7 0-6.7 3.1-6.7 6.9 0 3.7 3 6.7 6.7 6.7h34c3.7 0 6.7-3.1 6.7-6.9 0-3.7-3-6.7-6.7-6.7z"/><path d="m170.6 76.3c0-5 1.1-10 3.3-14.5h-104.8c-2.4 0-4.3 2-4.3 4.3v77.7c0 2.4 1.9 4.3 4.3 4.4h12.4v-65.3c0-2.4 1.9-4.3 4.3-4.3h84.9c0-.8-.1-1.5-.1-2.3z" fill="#87d147"/><path d="m170.6 76.3c0-2 .2-4 .5-6h-80c-.8 0-1.5.5-1.7 1.3-.8 2.5-1.9 4.9-3.5 6.9h84.8c0-.7-.1-1.4-.1-2.2z" fill="#b2e26d"/><path d="m81.5 83c-2.1 1.6-4.4 2.8-6.9 3.5-.8.2-1.3.9-1.3 1.7v33.5c0 .8.5 1.5 1.3 1.7 2.5.8 4.9 1.9 6.9 3.5z" fill="#b2e26d"/><path d="m204.1 109.7c-17.6 0-32.2-13.6-33.3-31.2h-85c-2.4 0-4.3 2-4.3 4.3v77.7c0 2.4 1.9 4.3 4.3 4.4h135.8c2.4 0 4.3-2 4.3-4.4v-59.1c-6 5.4-13.8 8.3-21.8 8.3z" fill="#87d147"/><path d="m204.1 109.7c-14.3 0-27-9.1-31.6-22.6h-64.5c-.8 0-1.5.5-1.7 1.3-2.2 7.1-7.7 12.7-14.9 14.9-.8.2-1.3.9-1.3 1.7v33.5c0 .8.5 1.5 1.3 1.7 7.1 2.2 12.7 7.7 14.9 14.9.2.8.9 1.3 1.7 1.3h91.6c.8 0 1.5-.5 1.7-1.3 2.2-7.1 7.7-12.7 14.9-14.9.8-.2 1.3-.9 1.3-1.7v-31.6c-4.3 1.9-8.8 2.8-13.4 2.8z" fill="#b2e26d"/><circle cx="153.8" cy="121.7" fill="#87d147" r="24.4"/><circle cx="204.1" cy="76.3" fill="#ef4460" r="33.4"/><path d="m81.5 150.6h-12.4c-3.8 0-6.8-3.1-6.8-6.8v-77.7c0-3.8 3.1-6.8 6.8-6.8h104.9c1.4 0 2.5 1.1 2.5 2.5 0 .4-.1.7-.2 1.1-2 4.2-3.1 8.8-3.1 13.4 0 .6 0 1.3.1 2.1.1 1.4-.9 2.6-2.3 2.7-.1 0-.1 0-.2 0h-85c-1 0-1.8.8-1.8 1.8v65.3c0 1.3-1.1 2.4-2.5 2.4zm-12.4-86.3c-1 0-1.8.8-1.8 1.8v77.7c0 1 .8 1.8 1.8 1.8h9.9v-62.7c0-3.8 3.1-6.8 6.8-6.8h82.3c0-4 .7-8 2.1-11.8z"/><path d="m156.7 135h-9.5c-1.4 0-2.5-1.1-2.5-2.5s1.1-2.5 2.5-2.5h9.5c1.6 0 2.9-1.3 2.9-2.9s-1.3-2.9-2.9-2.9h-6c-4.4 0-7.9-3.5-7.9-7.9s3.5-7.9 7.9-7.9h8.4c1.4 0 2.5 1.1 2.5 2.5s-1.1 2.5-2.5 2.5h-8.4c-1.6 0-2.9 1.3-2.9 2.9s1.3 2.9 2.9 2.9h6c4.4 0 7.9 3.5 7.9 7.9s-3.5 7.9-7.9 7.9z"/><path d="m153.8 138.7c-1.4 0-2.5-1.1-2.5-2.5v-28.9c0-1.4 1.1-2.5 2.5-2.5s2.5 1.1 2.5 2.5v28.9c-.1 1.3-1.2 2.5-2.5 2.5z"/><path d="m116.1 124.2h-5.1c-1.4 0-2.5-1.1-2.5-2.5s1.1-2.5 2.5-2.5h5.1c1.4 0 2.5 1.1 2.5 2.5s-1.1 2.5-2.5 2.5z"/><path d="m196.5 124.2h-5.1c-1.4 0-2.5-1.1-2.5-2.5s1.1-2.5 2.5-2.5h5.1c1.4 0 2.5 1.1 2.5 2.5s-1.1 2.5-2.5 2.5z"/><path d="m170.7 81h-84.8c-1.4 0-2.5-1.1-2.5-2.5 0-.5.2-1.1.5-1.5 1.4-1.9 2.5-3.9 3.1-6.2.5-1.8 2.2-3.1 4.1-3.1h80c1.4 0 2.5 1.1 2.5 2.5v.4c-.3 1.8-.5 3.7-.5 5.5 0 .6 0 1.3.1 2.1.1 1.4-.9 2.6-2.3 2.7-.1.1-.1.1-.2.1zm-80.3-5h77.8c0-1.1.1-2.1.2-3.2h-76.7c-.4 1.1-.8 2.2-1.3 3.2z"/><path d="m81.5 129.5c-.5 0-1.1-.2-1.5-.5-1.9-1.4-3.9-2.5-6.2-3.1-1.8-.6-3.1-2.2-3.1-4.1v-33.6c0-1.9 1.2-3.6 3.1-4.1 2.2-.7 4.3-1.7 6.2-3.1 1.1-.8 2.7-.6 3.5.5.3.4.5 1 .5 1.5v44c0 1.3-1.1 2.5-2.5 2.5zm-5.7-8.3c1.1.4 2.2.8 3.2 1.3v-35.1c-1 .5-2.1.9-3.2 1.3z"/><path d="m221.7 167.4h-135.9c-3.8 0-6.8-3.1-6.8-6.9v-77.6c0-3.8 3.1-6.8 6.8-6.8h84.9c1.3 0 2.4 1 2.5 2.3 1.1 17 15.9 29.9 32.9 28.8 6.7-.5 13.2-3.1 18.2-7.5 1-.9 2.6-.8 3.5.2.4.5.6 1 .6 1.6v59.1c.1 3.7-3 6.8-6.7 6.8zm-135.9-86.4c-1 0-1.8.8-1.8 1.8v77.7c0 1 .8 1.8 1.8 1.9h135.8c1 0 1.8-.8 1.8-1.9v-54.1c-16.7 10.7-38.9 5.9-49.6-10.7-2.9-4.4-4.7-9.5-5.4-14.7z"/><path d="m199.6 158.9h-91.6c-1.9 0-3.6-1.2-4.1-3.1-1.9-6.3-6.9-11.3-13.2-13.2-1.8-.6-3-2.2-3.1-4.1v-33.5c0-1.9 1.2-3.6 3.1-4.1 6.3-1.9 11.3-6.9 13.2-13.2.6-1.8 2.2-3.1 4.1-3.1h64.5c1.1 0 2 .7 2.4 1.7 5.5 16.2 23.1 24.8 39.3 19.3.8-.3 1.6-.6 2.4-.9 1.3-.6 2.7 0 3.3 1.3.1.3.2.7.2 1v31.6c0 1.9-1.2 3.6-3.1 4.1-6.3 1.9-11.3 6.9-13.2 13.2-.7 1.7-2.3 3-4.2 3zm-91.2-5h90.6c2.4-7.5 8.4-13.5 15.9-15.9v-27.4c-18 5.7-37.3-3.4-44.3-20.9h-62.2c-2.4 7.5-8.3 13.5-15.9 15.9v32.4c7.6 2.4 13.5 8.3 15.9 15.9z"/><path d="m153.8 148.6c-14.8 0-26.9-12-26.9-26.9 0-14.8 12-26.9 26.9-26.9 14.8 0 26.9 12 26.9 26.9-.1 14.9-12.1 26.9-26.9 26.9zm0-48.7c-12.1 0-21.9 9.8-21.9 21.9s9.8 21.9 21.9 21.9 21.9-9.8 21.9-21.9c-.1-12.1-9.9-21.9-21.9-21.9z"/><path d="m204.1 112.2c-19.8 0-35.9-16.1-35.9-35.9s16.1-35.9 35.9-35.9 35.9 16 35.9 35.9c0 19.8-16.1 35.9-35.9 35.9zm0-66.8c-17.1 0-30.9 13.8-30.9 30.9s13.8 30.9 30.9 30.9 30.9-13.8 30.9-30.9c0-17.1-13.9-30.9-30.9-30.9z"/><path d="m215.6 71.3h-6.6v-6.6c0-2.8-2.2-5-5-5s-5 2.2-5 5v6.6h-6.6c-2.8 0-5 2.2-5 5s2.2 5 5 5h6.6v6.6c0 2.8 2.2 5 5 5s5-2.2 5-5v-6.6h6.6c2.8 0 5-2.2 5-5s-2.2-5-5-5z" fill="#edf4fc"/><path d="m204.1 95.4c-4.1 0-7.5-3.4-7.5-7.5v-4.1h-4.1c-4.1 0-7.5-3.4-7.5-7.5s3.4-7.5 7.5-7.5h4.1v-4.1c0-4.1 3.4-7.5 7.5-7.5s7.5 3.4 7.5 7.5v4.1h4.1c4.1 0 7.5 3.4 7.5 7.5s-3.4 7.5-7.5 7.5h-4.1v4.1c-.1 4.1-3.4 7.4-7.5 7.5zm-11.6-21.6c-1.4 0-2.5 1.1-2.5 2.5s1.1 2.5 2.5 2.5h6.6c1.4 0 2.5 1.1 2.5 2.5v6.6c0 1.4 1.1 2.5 2.5 2.5s2.5-1.1 2.5-2.5v-6.6c0-1.4 1.1-2.5 2.5-2.5h6.6c1.4 0 2.5-1.1 2.5-2.5s-1.1-2.5-2.5-2.5h-6.6c-1.4 0-2.5-1.1-2.5-2.5v-6.6c0-1.4-1.1-2.5-2.5-2.5s-2.5 1.1-2.5 2.5v6.6c0 1.4-1.1 2.5-2.5 2.5z"/></g></svg>